<?xml version="1.0" encoding="utf-8"?>
<!-- Generator: Adobe Illustrator 22.0.0, SVG Export Plug-In . SVG Version: 6.00 Build 0)  -->
<svg version="1.1" id="Layer_1" xmlns="http://www.w3.org/2000/svg" xmlns:xlink="http://www.w3.org/1999/xlink" x="0px" y="0px"
	 viewBox="0 0 1920 413.7" style="enable-background:new 0 0 1920 413.7;" xml:space="preserve">
<style type="text/css">
	.st0{fill:#E4E4E4;}
	.st1{fill:#AADDD9;}
	.st2{fill:#A2E0E2;}
	.st3{fill:#95D5CF;}
	.st4{fill:#FFFFFF;}
	.st5{fill:#FFBF0D;}
	.st6{fill:#70A09B;}
	.st7{fill:#FFDB2D;}
	.st8{fill:#FF6B3E;}
	.st9{fill:#FF9600;}
	.st10{fill:#EDEDED;}
	.st11{fill:#D2D2D2;}
	.st12{clip-path:url(#SVGID_2_);fill:#95D5CF;}
</style>
<g>
	<g>
		<g>
			<path class="st0" d="M337.7,142.8l-39.1-14c-7.2-2.6-10.9-10.5-8.3-17.7L321,25.3c2.6-7.2,10.5-10.9,17.7-8.3l39.1,14
				c7.2,2.6,10.9,10.5,8.3,17.7l-30.7,85.8C352.8,141.6,344.9,145.3,337.7,142.8z"/>
		</g>
		<g>
			<g>
				<g>
					
						<rect x="296.1" y="41" transform="matrix(0.3372 -0.9414 0.9414 0.3372 153.663 369.3502)" class="st1" width="86.1" height="69.2"/>
				</g>
				<polyline class="st1" points="292.8,104.7 358,128 387,46.9 				"/>
			</g>
			<g>
				<g>
					
						<rect x="296.1" y="41" transform="matrix(0.3372 -0.9414 0.9414 0.3372 153.663 369.3502)" class="st2" width="86.1" height="69.2"/>
				</g>
				<polyline class="st3" points="292.8,104.7 358,128 387,46.9 				"/>
			</g>
		</g>
		
			<ellipse transform="matrix(0.8539 -0.5204 0.5204 0.8539 -18.5744 186.2829)" class="st4" cx="322.5" cy="126.2" rx="6.3" ry="6.3"/>
	</g>
	<g>
		<path class="st5" d="M1408.7,321l-0.1,36.2c0,6.5,3.1,15.1,10,15.1l16.5,0l30.2,13.2l0-13.1l10.2,0c6.9,0,11.7-8.7,11.7-15
			l0.1-36.2c0-6.4-4.5-10.4-11.6-10.4l-56.9-0.1C1411.8,310.7,1408.7,314.5,1408.7,321z"/>
		<circle class="st4" cx="1463.3" cy="340.3" r="5.3"/>
		<circle class="st4" cx="1447.4" cy="340.2" r="5.3"/>
		
			<ellipse transform="matrix(2.448931e-03 -1 1 2.448931e-03 1087.6387 1770.6532)" class="st4" cx="1431.3" cy="340.2" rx="5.3" ry="5.3"/>
	</g>
	<g>
		<path class="st2" d="M1423.4,279.1l-70.1-0.2c-8.8,0-14.2,5.4-14.2,13.4l-0.1,44.5c0,7.8,5.6,18.2,14.2,18.3l12.5,0l0,16.5
			l37.3-16.4l20.3,0c8.5,0,13.8-10.2,13.8-18.2l0.1-44.5C1437.2,284.5,1432,279.1,1423.4,279.1z"/>
		
			<ellipse transform="matrix(0.7071 -0.7071 0.7071 0.7071 177.4292 1060.1179)" class="st4" cx="1368.4" cy="315.9" rx="6.5" ry="6.5"/>
		
			<ellipse transform="matrix(0.7071 -0.7071 0.7071 0.7071 183.1261 1073.967)" class="st4" cx="1388" cy="315.9" rx="6.5" ry="6.5"/>
		
			<ellipse transform="matrix(0.2313 -0.9729 0.9729 0.2313 774.7016 1612.4868)" class="st4" cx="1407.8" cy="316" rx="6.5" ry="6.5"/>
	</g>
	<g>
		
			<ellipse transform="matrix(0.2641 -0.9645 0.9645 0.2641 -183.7956 505.8443)" class="st6" cx="239.6" cy="373.4" rx="15.5" ry="15.5"/>
		<path class="st5" d="M236.2,279.3c-9.9-4.6-20.9-5.1-31.2-1.4c-0.1,0-0.2,0.1-0.3,0.1c-10,3.7-18.1,11.1-22.7,20.7
			c-4.6,9.7-5.3,20.6-1.9,30.7c3.6,10.6,11.1,19.1,21.2,23.9c5.5,2.6,9.7,7.2,11.7,12.6l1.4,4l42.2-15.3l-1.4-4
			c-2-5.4-1.7-11.7,0.8-17c4.6-9.9,5.1-21,1.4-31.2C253.7,292.2,246.2,283.9,236.2,279.3z"/>
		<path class="st2" d="M213.1,366l2.4,6.6c1.8,5.1,7.4,7.7,12.5,5.9l23.8-8.6c5.1-1.8,7.7-7.4,5.9-12.5l-2.4-6.6L213.1,366z"/>
		<path class="st7" d="M212.4,305.3c-2.5,5.4-9,7.8-14.4,5.2c-5.4-2.5-7.8-9-5.2-14.4s9-7.8,14.4-5.2
			C212.6,293.4,215,299.9,212.4,305.3z"/>
		
			<ellipse transform="matrix(3.254209e-02 -0.9995 0.9995 3.254209e-02 -121.7296 513.8964)" class="st7" cx="204.6" cy="319.8" rx="18.6" ry="18.6"/>
		<path class="st4" d="M205.9,312c4.2,0.8,7,4.8,6.3,9c-0.8,4.2-4.8,7-9,6.3c-4.2-0.8-7-4.8-6.3-9S201.7,311.3,205.9,312z"/>
	</g>
	<path class="st8" d="M138.2,231c1.4-2.3,2.4-4.8,3.3-7.4c0.8-2.6,1.4-5.2,1.6-7.9l1.1-0.2l7.4-1.6l-1.6-7.4l-1.6-7.4l-1.6-7.4
		l-7.4,1.6l-1.2,0.3c-1.3-2.3-3.6-4.7-5.4-6.7c-1.9-2.1-4.2-4-6.9-5.8l0.4-1.1l2.7-8.5l-5.6-1.8l-7.2-2.3l-9.1-2.9l-2.7,8.5
		l-0.4,1.1c-1.8,0.3-4.5,0.6-7.3,1.2c-2.6,0.6-4.6,1.6-7,2.7l-0.6-0.8l-5-5.6l-5.5,5.1l-5.6,5.1l-5.6,5.1l5.1,5.6l0.8,0.9
		c-1.4,2.3-2.4,4.8-3.3,7.4c-0.8,2.6-1.4,5.2-1.6,7.9l-1.1,0.2l-7.4,1.6l1.6,7.4l1.6,7.4l1.6,7.4l7.4-1.6l1.2-0.3
		c1.3,2.3,1.9,4.1,3.7,6.1c1.9,2.1,3.9,3.9,5.2,5.2l-0.4,1.1l-2.1,6.7l9.1,2.9l7.2,2.3l5.6,1.8l2.1-6.7l0.4-1.1c3.3,0.2,6.3,0,9-0.6
		c2.6-0.6,5.5-1.3,7.9-2.4l1,0.9l5.2,5.6l5.7-5.1l5.6-5.1l5.6-5.1l-5.1-5.6L138.2,231z M99.2,232.5c-11.2-3.6-17.5-15.7-13.8-27
		c3.6-11.3,15.7-17.5,27-13.9c11.2,3.6,17.5,15.7,13.8,27C122.6,229.9,110.5,236.2,99.2,232.5z"/>
	<g>
		<polygon class="st5" points="1783.9,307.1 1762.2,281.1 1740.4,307.1 1748.8,307.1 1748.8,340.6 1775.6,340.6 1775.6,307.1 		"/>
		<polygon class="st8" points="1809.1,348 1809.1,314.5 1781.6,314.5 1781.6,348 1774,348 1795.7,374 1817.5,348 		"/>
	</g>
	<g>
		<polygon class="st5" points="1175.7,249.6 1162.6,233.8 1149.4,249.6 1154.5,249.6 1154.5,269.8 1170.7,269.8 1170.7,249.6 		"/>
		<polygon class="st8" points="1190.9,274.3 1190.9,254 1174.4,254 1174.4,274.3 1169.7,274.3 1182.9,290 1196,274.3 		"/>
	</g>
	<path class="st5" d="M1461.7,147.1c0.4-1.8,0.6-3.6,0.6-5.4s-0.2-3.7-0.6-5.4l0.7-0.4l4.5-2.6l-2.6-4.4l-2.6-4.4l-2.6-4.4l-4.5,2.6
		l-0.7,0.4c-1.3-1.2-2.4-2.3-4-3.2c-1.7-0.9-2.8-1.7-4.8-2.3v-0.8V111h-5.9h-5.2h-4.9v5.7v0.8c-3,0.6-3.7,1.3-5.4,2.3
		c-1.6,0.9-3.1,2-4.5,3.2l-0.8-0.4l-4.5-2.6l-2.6,4.4l-2.6,4.4l-2.6,4.4l4.5,2.6l0.7,0.4c-0.4,1.8-0.6,3.6-0.6,5.4s0.2,3.7,0.6,5.4
		l-0.7,0.4l-4.5,2.6l2.6,4.4l2.6,4.4l2.6,4.4l4.5-2.6l0.7-0.4c1.3,1.2,3,2.3,4.6,3.2c1.7,0.9,2.4,1.7,5.4,2.3v0.8v5.5h4.9h5.2h5.9
		v-5.5v-0.8c2-0.6,3.2-1.3,4.8-2.3c1.6-0.9,2.9-2,4.2-3.2l0.6,0.4l4.5,2.6l2.6-4.4l2.6-4.4l2.6-4.4l-4.5-2.6L1461.7,147.1z
		 M1436.5,156.1c-8.1,0-14.8-6.5-14.8-14.5c0-8,6.6-14.5,14.8-14.5c8.1,0,14.8,6.5,14.8,14.5
		C1451.2,149.6,1444.6,156.1,1436.5,156.1z"/>
	<path class="st5" d="M1619.9,173.5l-6.9-11.6c-0.6-1,0.1-2.3,1.3-2.3c1.9,0,3.9-0.5,5.6-1.8c3.3-2.5,4.5-7.1,2.7-10.8
		c-2.3-5-8.2-6.8-12.8-4c-1.5,0.9-2.6,2.1-3.4,3.6c-0.5,1-2,1.1-2.6,0.1l-6.9-11.6l-11.6,6.9c-1,0.6-2.3-0.1-2.3-1.3
		c0-1.9-0.5-3.9-1.8-5.6c-2.5-3.3-7.1-4.5-10.8-2.7c-5,2.3-6.8,8.2-4,12.8c0.9,1.5,2.1,2.6,3.6,3.4c1,0.5,1.1,2,0.1,2.6l-11.6,6.9
		l6.9,11.6c0.6,1-0.1,2.3-1.3,2.3c-1.9,0-3.9,0.5-5.6,1.8c-3.3,2.5-4.5,7.1-2.7,10.8c2.3,5,8.2,6.8,12.8,4c1.5-0.9,2.6-2.1,3.4-3.6
		c0.5-1,2-1.1,2.6-0.1l6.9,11.6L1619.9,173.5z"/>
	<path class="st5" d="M1041.9,272l-6.2-10.4c-0.5-0.9,0.1-2,1.2-2c1.7,0,3.5-0.5,5-1.6c3-2.2,4-6.3,2.5-9.7c-2-4.5-7.4-6.1-11.5-3.6
		c-1.3,0.8-2.4,1.9-3,3.2c-0.5,0.9-1.8,0.9-2.3,0l-6.2-10.4l-10.4,6.2c-0.9,0.5-2-0.1-2-1.2c0-1.7-0.5-3.5-1.6-5
		c-2.2-3-6.3-4-9.7-2.5c-4.5,2-6.1,7.4-3.6,11.5c0.8,1.3,1.9,2.4,3.2,3c0.9,0.5,0.9,1.8,0,2.3l-10.4,6.2l6.2,10.4
		c0.5,0.9-0.1,2-1.2,2c-1.7,0-3.5,0.5-5,1.6c-3,2.2-4,6.3-2.5,9.7c2,4.5,7.4,6.1,11.5,3.6c1.3-0.8,2.4-1.9,3-3.2
		c0.5-0.9,1.8-0.9,2.3,0l6.2,10.4L1041.9,272z"/>
	<path class="st2" d="M1653.2,322.8c1.2,2.2,1.5,4.5,1.1,6.7c-0.2,1.3,1.1,2.4,2.3,1.9l14.4-5.7l-19-47.8l-14.4,5.7
		c-1.2,0.5-1.5,2.2-0.4,3c1.5,1.1,2.7,2.6,3.4,4.5c2.2,5.6-0.9,12.1-6.9,13.7c-4.6,1.3-9.5-0.9-11.8-5.1c-1.2-2.2-1.5-4.5-1.1-6.7
		c0.2-1.3-1.1-2.4-2.3-1.9l-14.4,5.7l19,47.8l14.4-5.7c1.2-0.5,1.5-2.2,0.4-3c-1.5-1.1-2.7-2.6-3.4-4.5c-2.2-5.6,0.9-12.1,6.9-13.7
		C1646,316.4,1651,318.6,1653.2,322.8z"/>
	<g>
		<polygon class="st9" points="440.7,313.8 515,304.4 406.1,249.3 		"/>
		<path class="st10" d="M377.9,310.1c0,0,2.8,5.7,5.9,7.3l89.6,45.3c5.3,2.7,11.6,1,14.1-3.9l27.5-54.5L377.9,310.1z"/>
		<path class="st0" d="M482.8,363.2c-2.8,1.2-6.3,1.1-9.4-0.4l-89.6-45.3c-5.3-2.7-7.7-8.8-5.2-13.7l27.5-54.5
			C406.1,249.3,477.9,356.6,482.8,363.2z"/>
		<path class="st11" d="M377.9,310.1L377.9,310.1c0,0.2,0.1,0.4,0.1,0.5c0,0,0,0,0,0c0,0.2,0.1,0.3,0.2,0.5c0,0,0,0,0,0.1
			c0.1,0.2,0.1,0.3,0.2,0.5c0,0,0,0,0,0c0.2,0.5,0.5,1,0.8,1.5c0,0,0,0,0,0.1c0.1,0.1,0.2,0.3,0.3,0.4c0,0,0,0.1,0.1,0.1
			c0.1,0.1,0.2,0.2,0.3,0.4c0,0,0.1,0.1,0.1,0.1c0.1,0.1,0.2,0.2,0.3,0.4c0,0,0,0.1,0.1,0.1c0.3,0.3,0.5,0.6,0.8,0.8
			c0,0,0.1,0.1,0.1,0.1c0.1,0.1,0.2,0.2,0.3,0.3c0.1,0,0.1,0.1,0.2,0.1c0.1,0.1,0.2,0.2,0.3,0.2c0.1,0,0.1,0.1,0.2,0.1
			c0.1,0.1,0.2,0.1,0.3,0.2c0.1,0,0.1,0.1,0.2,0.1c0.1,0.1,0.2,0.1,0.4,0.2c0.1,0,0.1,0.1,0.1,0.2c0.2,0.1,0.3,0.3,0.5,0.3
			l89.6,45.3c0.2,0.1,0.4,0.1,0.6,0.2c0.1,0,0.1,0,0.2,0c0.1,0.1,0.3,0.1,0.4,0.1c0.1,0,0.1,0,0.2,0.1c0.1,0,0.2,0.1,0.4,0.1
			c0.1,0,0.1,0,0.2,0.1c0.1,0,0.3,0.1,0.4,0.1c0.1,0,0.1,0,0.2,0.1c0.1,0,0.3,0.1,0.4,0.1c0,0,0.1,0,0.1,0c0.4,0.1,0.8,0.1,1.2,0.2
			c0,0,0.1,0,0.1,0c0.2,0,0.3,0,0.5,0c0,0,0.1,0,0.1,0c0.1,0,0.3,0,0.4,0c0,0,0.1,0,0.1,0c0.2,0,0.3,0,0.5,0c0,0,0.1,0,0.1,0
			c0.6,0,1.2-0.1,1.7-0.3c0,0,0,0,0,0c0.2,0,0.4-0.1,0.5-0.1c0,0,0,0,0.1,0c0.2,0,0.3-0.1,0.5-0.2c0,0,0,0,0,0
			c0.2-0.1,0.3-0.1,0.5-0.2l0,0c-2.5-3.3-37.8-55.5-37.8-55.5S382,310.1,377.9,310.1z"/>
		<path class="st5" d="M406.1,249.4l69.7-15.1c4-0.5,8,1.5,10,5l29.2,65.1L406.1,249.4z"/>
	</g>
	<g>
		<g>
			<defs>
				
					<ellipse id="SVGID_1_" transform="matrix(0.9955 -9.450876e-02 9.450876e-02 0.9955 -4.7207 167.0993)" cx="1761.8" cy="133.4" rx="95.8" ry="95.8"/>
			</defs>
			<use xlink:href="#SVGID_1_"  style="overflow:visible;fill:#A2E0E2;"/>
			<clipPath id="SVGID_2_">
				<use xlink:href="#SVGID_1_"  style="overflow:visible;"/>
			</clipPath>
			<path class="st12" d="M1678,82.9c-1.1,7.9,1.6,12,0,15.9c-1.6,3.8-3.6,10.7-1.9,15.3c1.6,4.6,4.1,14.8,6.3,15
				c2.2,0.3-1.6-10.9,0.5-7.4c2.2,3.6,2.2,8.8,6,12.5c3.8,3.6,9,3.1,13.1,6.7c4.1,3.6,8.2,8.7,12,8.2c0,0-0.3,2.7-2.2,7.4
				c-1.9,4.6-2.2,10.1,0.3,13.4c2.5,3.3,4.9,8.2,7.1,10.7c2.2,2.5,3.8,15.6,3.3,22.1c-0.5,6.6,2.5,21.3,9.3,24.6
				c6.8,3.3,0-1.6-1.4-5.7c-1.4-4.1,1.1-13.7,4.4-15c3.3-1.4,6.3-6.8,8.8-10.7c2.5-3.8,8.7-5.5,10.7-10.1c1.9-4.6,1.1-10.1,2.2-12.6
				c1.1-2.5,4.1-7.9-2.5-11.2c-6.6-3.3-9.3-1.6-9.6-4.6c-0.3-3-1.9-6.3-6.6-7.7c-4.6-1.4-8.7-4-13.9-4.6c-5.2-0.6-6.3,3.5-9,1.3
				c-2.7-2.2-4.9-4.4-6-7.1c-1.1-2.7-4.4-1.1-4.1-2.7c0.3-1.6,4.6-6.3-0.3-4.6c-4.9,1.6-9.3,1.1-9-3.3c0.3-4.4,6.3-6,8.7-6.6
				c2.5-0.5,4.4,2.5,7.4,4.4c3,1.9,0.3-2.7,1.9-6c1.6-3.3,7.9-3,8.7-7.7c0.8-4.6-0.3-8.5,4.6-9c4.9-0.5,10.1,0.3,10.7-2.2
				c0.5-2.5-5.7,0.8-6-2.2c-0.3-3,5.5-7.1,7.1-4.1c1.6,3,5.7,3.3,6.3,2.2c0.5-1.1,0-3-1.9-7.7c-1.9-4.6-3.8-3.3-5.5-8.5
				c-1.6-5.2-4.4,0.3-7.1-2.5c-2.7-2.7-6-8.5-6.6-3.6c-0.5,4.9-0.5,7.7-3,11.5c-2.5,3.8-3.6,0.8-5.7-1.6c-2.2-2.5-7.1-4.9-5.5-7.1
				c1.6-2.2,3.3-7.9,5.7-6.3c2.5,1.6,6.3,1.6,5.7-1.1c-0.5-2.7,0-3.8,1.1-5.2c1.1-1.4,4.9-3.8,4.9,1.1c0,4.9-0.5,6.3,3.3,6.8
				c3.8,0.5,8.2,0.8,7.9-1.6c-0.3-2.5,1.1-1.9,0-6c-1.1-4.1-4.4-4.4-7.9-6.3c-3.6-1.9-5.5-4.9-8.5-3.8c-3,1.1-3.3,2.2-3.6,5.2
				c-0.3,3-1.9,4.1-3,2.7c-1.1-1.4,0.3-5.7-3.8-3c-4.1,2.7-5.7,7.4-7.9,4.1c-2.2-3.3,3.3-9-2.5-6.6c-5.7,2.5-9.8,5.2-6.8,6.3
				c3,1.1,6,3,3,4.1c-3,1.1-9-0.8-11.2,1.4C1684,72,1678,82.9,1678,82.9z"/>
			<path class="st12" d="M1710.2,53.4c0,3.1,0.8,5.5,3.6,2.7c2.7-2.7,4.4-6,6.3-4.6c1.9,1.4,5.2,1,6.6,0.9c1.4-0.1,1.6-4.2,5.5-3.6
				c3.8,0.5,2.5-0.8,6.6-3c4.1-2.2,12.8-6,3.8-4.9c-9,1.1-9.6-1.4-15.9,2.7c-6.3,4.1-7.7,4.1-9.3,5.2c-1.6,1.1-3.6-3.3-5.7,0
				C1709.4,52.1,1710.2,50.3,1710.2,53.4z"/>
			<path class="st12" d="M1743,44.9c-3.2,2.8-8.2,6.8-4.4,6.8c3.8,0,5.7-2,7.8,0.6c2.1,2.6,1.3,6.7,1.3,8.7c0,1.9-1.1,6.3,1.6,11.8
				c2.7,5.5,3,9,5.7,5.5c2.7-3.6,9.3-10.4,12.6-10.9c3.3-0.5,6.6-1.9,8.2-4.6c1.6-2.7,0-5.4,2.7-7.3c2.7-2,2.2-4.4,3-7.4
				c0.8-3,8.2-3,4.9-4.6c-3.3-1.6-9.3-2.7-16.4-1.9C1763,42.2,1749.1,39.7,1743,44.9z"/>
			<path class="st12" d="M1713,129.4c-1.7,2.8-0.8,3,1.1,3.6c1.9,0.5-0.8,3.8,1.4,4.1c2.2,0.3,7.1,1.6,8.5,0c1.4-1.6-2.2-1-4.6-2.8
				C1716.8,132.4,1714.2,127.4,1713,129.4z"/>
			<path class="st12" d="M1845.3,174c-2.9,1.5-1.6,3.8-4.4,5.5c-2.7,1.6-1.6,2.2-2.5,6c-0.8,3.8,0.3,6,2.2,3
				C1842.6,185.5,1848.6,172.3,1845.3,174z"/>
			<path class="st12" d="M1860.9,128.1c-0.8-4.6-6.8-46.8-6.8-46.8s-16.1-10.4-18.9-8.2c-2.7,2.2-7.4,1.9-6.8-0.3
				c0.5-2.2,4.1-1.6-1.9-5.7c-6-4.1-7.1-7.7-11.8-2.5c-4.6,5.2-5.7,9.6-8.5,10.9c-2.7,1.4-4.9,5.7-1.9,6.8c3,1.1,3.3,0,5.7,2.2
				c2.5,2.2,5.7,1.6,6.3,0.3c0.5-1.4,1.1-5.7,1.4-7.4c0.3-1.6,3.1-7.1,2.8-2.7c-0.3,4.4,3.8,4.4,1.1,7.4c-2.7,3-1.1,5.5-6.6,6
				c-5.5,0.5-5.7-2.7-8.7-1.1c-3,1.6-2.7,2.7-3.8,4.4c-1.1,1.6-6.8,4.9-6.8,4.9s-4.6-1.6-2.5,1.4c2.2,3,4.1,6.6,2.2,6.8
				c-1.9,0.3-7.1-2.7-7.1,0.5c0,3.3-0.8,6.8,1.4,7.7c1.5,0.6,2.5,1.8,4,1.7c-1.1,0.5-2.1,1.2-2.9,2.2c-2.1,2.8-0.8,7.7-5.2,9.3
				c-4.4,1.6-4.4,3.6-5.2,7.1c-0.8,3.6,0,12.6,1.1,13.4c1.1,0.8,3,7.7,7.7,7.1c4.6-0.5,9.6-0.8,11.2,0c1.6,0.8,4.4-1.7,5.2,4.6
				c0.8,6.3,2.7,7.1,3.8,10.4c1.1,3.3-0.5,10.1,0,14.2c0.5,4.1,4.4,11.2,4.4,14.8c0,3.6,4.1,5.2,6.3,3.8c2.2-1.4,6.8-4.1,8.7-8.5
				c1.9-4.4,1.9-6.6,4.9-12.3c3-5.7,2.2-9.8,3.6-14.2c1.4-4.4,4.7-7.4,9.2-12.3c4.5-4.9,3.7-7.7,0-7.4c-3.7,0.3-6.2-3.3-8.1-7.7
				c-1.9-4.4-4.1-15.3-2.5-11.8c1.6,3.6,4.9,13.4,8.2,15c3.3,1.6,9.3-2.8,10.7-4.4c1.4-1.6,0.8-6.3-2.7-8.2
				c-3.6-1.9-1.4-3.6,2.2-1.4C1857.6,130.5,1861.7,132.7,1860.9,128.1z M1831.9,116.3c-0.3,2.2,0.8,5.7-5.2,4.4
				c-6-1.4-6-4.6-8.5-2.2c-2.5,2.5-5.5,4.6-9,0.8c-3.6-3.8-3-4.9-4.9-5.2c-1.4-0.2-5.9-1.2-9.7-0.1c0.3-0.2,0.6-0.4,0.9-0.7
				c2.7-2.5,2.2-3.3,5.2-6c3-2.7,5.2-5.2,7.4-2.7c2.2,2.5,6.8,3,5.2,5.7c-1.6,2.7-0.5,4.4,1.4,2.7c1.9-1.6,4.6-2.7,2.7-4.9
				c-1.9-2.2-3.8-7.9-1.1-4.1c2.7,3.8,3.6,5.7,5.2,7.9c1.6,2.2,3.3,3.6,3.8,2.2c0.5-1.4-0.3-4.4,0.5-4.9c0.8-0.5,0,4.6,2.5,4.9
				C1830.8,114.4,1832.2,114.1,1831.9,116.3z M1838.2,107c-1.9-1.1-5.5,0-9.8,1.4c-4.4,1.4-0.9-3,1.1-6c1.8-2.7,0.8,0.8,4.6,1.1
				C1837.9,103.7,1840.1,108.1,1838.2,107z M1847.8,115.5c-0.8,0.8-2.2-3.8-3-6c-0.8-2.2-0.8-6,1.5-8.1c2.9-2.6,1.5,3.5,1.5,6.7
				C1847.8,111.4,1848.6,114.7,1847.8,115.5z"/>
			<path class="st12" d="M1795,82.1c-1.7,0.5-3,3.8-2.2,5.5c0.8,1.6-0.8-0.8-3,0.5c-2.2,1.4-5.4,5.2-2.4,5.5c3,0.3,2.4-2.2,5.2-1.1
				c2.7,1.1,5.7,0.8,5.7-1.9C1798.3,87.9,1797.7,81.3,1795,82.1z"/>
			<path class="st12" d="M1777.2,69.5c-1.6,0.2-2.2,4.4,1.4,4.9c3.6,0.5,9.9-0.8,7.6-3C1783.8,69.3,1781,69,1777.2,69.5z"/>
		</g>
		<path class="st4" d="M1777.2,124.3c0-9.3-6.2-17.8-15.2-20.7l-3.2-1l-0.2-3.4c-0.7-15.3-13.3-27.3-28.6-27.3
			c-13.7,0-25.5,9.7-28.1,23.1l-0.6,3.3L1698,99c-11.4,1.8-19.9,11.9-19.9,23.4c0,13,10.6,23.7,23.7,23.7h53.8
			C1767.5,146,1777.2,136.3,1777.2,124.3z"/>
	</g>
	<path class="st2" d="M1562.7,43.7c0-4.4-3.3-8.5-8-9.8l-1.7-0.5l-0.1-1.6c-0.4-7.2-7-12.9-15.1-12.9c-7.2,0-13.4,4.6-14.8,11
		l-0.3,1.6l-1.7,0.3c-6,0.9-10.5,5.6-10.5,11.1c0,6.2,5.6,11.2,12.5,11.2h28.3C1557.6,54,1562.7,49.4,1562.7,43.7z"/>
	<path class="st2" d="M854.2,285.5c4.5-6.1,4.1-15-1-21.7l-1.8-2.4l1.5-2.3c6.9-10.4,3.5-25-7.6-33.2c-9.9-7.3-23.2-7.3-31.6,0
		l-2.1,1.8l-2.7-1.4c-9.1-4.9-20.2-2.9-25.8,4.6c-6.3,8.5-3.8,21.2,5.7,28.2l39.1,28.9C836.6,294.5,848.4,293.4,854.2,285.5z"/>
	<path class="st2" d="M178,116.5c0-7.1-5.3-13.5-12.8-15.7l-2.7-0.8l-0.1-2.5c-0.6-11.6-11.2-20.7-24.1-20.7
		c-11.5,0-21.5,7.4-23.7,17.5l-0.5,2.5l-2.8,0.4c-9.6,1.4-16.8,9-16.8,17.7c0,9.9,8.9,18,19.9,18h45.3
		C169.8,133,178,125.6,178,116.5z"/>
	<polygon class="st5" points="351.3,196.6 345.4,201.5 346.1,209.1 339.7,205 332.7,208 334.5,200.6 329.5,194.9 337.1,194.4 
		341,187.8 343.9,194.9 	"/>
	<polygon class="st5" points="704.3,252.6 698.4,257.5 699.1,265.1 692.7,261 685.7,264 687.5,256.6 682.5,250.9 690.1,250.4 
		694,243.8 696.9,250.9 	"/>
	<polygon class="st5" points="179.1,36.3 181.6,43.5 189,45.4 183,50.1 183.4,57.7 177.1,53.4 169.9,56.2 172.1,48.8 167.3,42.9 
		174.9,42.7 	"/>
</g>
</svg>
